<svg viewBox="0 0 512 512" fill="none" xmlns="http://www.w3.org/2000/svg">
  <!-- White background -->
  <rect width="512" height="512" fill="#ffffff"/>

  <!-- Document body -->
  <path
    d="M80 80 H240 L320 160 V416 A32 32 0 0 1 288 448 H112 A32 32 0 0 1 80 416 V112 A32 32 0 0 1 112 80 Z"
    fill="#0a0a0a"
  />

  <!-- Folded corner highlight -->
  <path
    d="M240 80 L240 128 A32 32 0 0 0 272 160 L320 160 L240 80"
    fill="#333333"
  />

  <!-- Text lines -->
  <line x1="128" y1="224" x2="272" y2="224" stroke="#ffffff" stroke-width="18" stroke-linecap="round"/>
  <line x1="128" y1="280" x2="240" y2="280" stroke="#ffffff" stroke-width="18" stroke-linecap="round"/>
  <line x1="128" y1="336" x2="208" y2="336" stroke="#ffffff" stroke-width="18" stroke-linecap="round"/>

  <!-- Sound waves -->
  <path d="M352 200 Q392 256 352 312" fill="none" stroke="#0a0a0a" stroke-width="20" stroke-linecap="round"/>
  <path d="M392 160 Q456 256 392 352" fill="none" stroke="#0a0a0a" stroke-width="20" stroke-linecap="round" opacity="0.7"/>
  <path d="M432 120 Q512 256 432 392" fill="none" stroke="#0a0a0a" stroke-width="20" stroke-linecap="round" opacity="0.4"/>
</svg>
